# xmcd CD database file
#
# Track frame offsets:
#	150
#	20595
#	44745
#	65445
#
# Disc length: 1192 seconds
#
# Revision: 0
# Processed by: cddbd v1.5.1PL0 Copyright (c) Steve Scherf et al.
# Submitted via: CDex 1.51
#
DISCID=3404a604
DTITLE=影山ヒロノブ - TAKE A JOURNEY
DYEAR=1997
DGENRE=JPop
TTITLE0=TAKE A JOURNEY
TTITLE1=MY DEAR
TTITLE2=TAKE A JOURNEY（オリジナル・カラオケ）
TTITLE3=MY DEAR（オリジナル・カラオケ）
EXTD=YEAR: 1997
EXTT0=
EXTT1=
EXTT2=
EXTT3=
PLAYORDER=
